<?xml version="1.0" encoding="utf-8"?>
<!-- Generator: Adobe Illustrator 23.0.3, SVG Export Plug-In . SVG Version: 6.00 Build 0)  -->
<svg version="1.1" id="Calque_1" xmlns="http://www.w3.org/2000/svg" xmlns:xlink="http://www.w3.org/1999/xlink" x="0px" y="0px"
	 viewBox="0 0 511 511" style="enable-background:new 0 0 511 511;" xml:space="preserve">
<style type="text/css">
	.st0{fill:#EDC02C;}
</style>
<path class="st0" d="M500,105.9l-96-96L254.5,159.5L105,10l-96,96l149.5,149.6L9,405l96,96l149.6-149.6L404,501l96-96L350.5,255.5
	L500,105.9z"/>
<path d="M404,511c-2.6,0-5.1-1-7.1-2.9l-56.5-56.5c-3.9-3.9-3.9-10.2,0-14.1s10.2-3.9,14.1,0l49.5,49.4l81.9-81.9L343.4,262.6
	c-3.9-3.9-3.9-10.2,0-14.1l142.5-142.5L404,24.1L261.6,166.6c-3.9,3.9-10.2,3.9-14.1,0L105,24.1l-81.9,81.9l142.5,142.5
	c3.9,3.9,3.9,10.2,0,14.1L23.1,405l81.9,81.9l142.5-142.5c1.9-1.9,4.4-2.9,7.1-2.9c2.6,0,5.2,1.1,7.1,2.9l36.5,36.5
	c3.9,3.9,3.9,10.2,0,14.1c-3.9,3.9-10.2,3.9-14.1,0l-29.4-29.4L112,508.1c-3.9,3.9-10.2,3.9-14.1,0l-96-96c-3.9-3.9-3.9-10.2,0-14.1
	l142.5-142.5L1.9,113c-3.9-3.9-3.9-10.2,0-14.1l96-96c3.9-3.9,10.2-3.9,14.1,0l142.5,142.5L397,2.9c3.9-3.9,10.2-3.9,14.1,0l96,96
	c3.9,3.9,3.9,10.2,0,14.1L364.6,255.5L507.1,398c3.9,3.9,3.9,10.2,0,14.1l-96,96C409.2,510,406.6,511,404,511z"/>
<path d="M319.3,426.2c-2.6,0-5.2-1.1-7.1-2.9c-1.9-1.9-2.9-4.4-2.9-7.1c0-2.6,1.1-5.2,2.9-7.1c1.9-1.9,4.4-2.9,7.1-2.9
	c2.6,0,5.2,1.1,7.1,2.9c1.9,1.9,2.9,4.4,2.9,7.1c0,2.6-1.1,5.2-2.9,7.1C324.5,425.2,322,426.2,319.3,426.2z"/>
</svg>
