<?xml version="1.0" encoding="utf-8"?>
<!-- Generator: Adobe Illustrator 23.0.3, SVG Export Plug-In . SVG Version: 6.00 Build 0)  -->
<svg version="1.1" id="Calque_1" xmlns="http://www.w3.org/2000/svg" xmlns:xlink="http://www.w3.org/1999/xlink" x="0px" y="0px"
	 viewBox="0 0 1000 1000" style="enable-background:new 0 0 1000 1000;" xml:space="preserve">
<style type="text/css">
	.st0{fill:#EDC02C;}
	.st1{fill:#FFFFFF;}
</style>
<g>
	<path class="st0" d="M500,930c-58.1,0-114.4-11.4-167.4-33.8c-51.2-21.7-97.2-52.7-136.7-92.2c-39.5-39.5-70.5-85.5-92.2-136.7
		C81.4,614.4,70,558.1,70,500c0-58.1,11.4-114.4,33.8-167.4c21.7-51.2,52.7-97.2,92.2-136.7c39.5-39.5,85.5-70.5,136.7-92.2
		C385.6,81.4,441.9,70,500,70c58.1,0,114.4,11.4,167.4,33.8c51.2,21.7,97.2,52.7,136.7,92.2c39.5,39.5,70.5,85.5,92.2,136.7
		c22.4,53,33.8,109.3,33.8,167.4c0,58.1-11.4,114.4-33.8,167.4c-21.7,51.2-52.7,97.2-92.2,136.7c-39.5,39.5-85.5,70.5-136.7,92.2
		C614.4,918.6,558.1,930,500,930z"/>
	<path class="st1" d="M500,80c56.7,0,111.7,11.1,163.5,33c50,21.2,94.9,51.4,133.5,90c38.6,38.6,68.9,83.5,90,133.5
		c21.9,51.8,33,106.8,33,163.5s-11.1,111.7-33,163.5c-21.2,50-51.4,94.9-90,133.5c-38.6,38.6-83.5,68.9-133.5,90
		c-51.8,21.9-106.8,33-163.5,33s-111.7-11.1-163.5-33c-50-21.2-94.9-51.4-133.5-90c-38.6-38.6-68.9-83.5-90-133.5
		C91.1,611.7,80,556.7,80,500s11.1-111.7,33-163.5c21.2-50,51.4-94.9,90-133.5s83.5-68.9,133.5-90C388.3,91.1,443.3,80,500,80
		 M500,60C257,60,60,257,60,500s197,440,440,440s440-197,440-440S743,60,500,60L500,60z"/>
</g>
<g>
	<path class="st1" d="M298.6,362.8c11.8,14,17.8,33.2,17.8,57.8v8.5H283v-10.4c0-30-12-45-36-45c-24,0-36,14.9-36,44.6
		c0,15,4.1,27.7,12.2,38c8.1,10.4,20.2,21.8,36.4,34.4c12.9,10.8,23,20,30.4,27.4c7.3,7.5,13.6,16.8,18.9,27.9
		c5.2,11.1,7.9,23.8,7.9,38.2c0,24.6-6,43.9-18,57.8c-12,14-29.7,20.9-53.1,20.9c-23.4,0-41-7-52.9-20.9
		C181,628.3,175,609,175,584.4v-18h32.9v19.8c0,14.4,3.1,25.5,9.2,33.3c6.1,7.8,15.4,11.7,27.7,11.7c12.3,0,21.5-3.9,27.7-11.7
		c6.1-7.8,9.2-18.9,9.2-33.3c0-14.7-4-27.1-11.9-37.4c-8-10.2-20-21.7-36.2-34.6c-12.3-10.2-22.3-19.1-29.9-26.8
		c-7.6-7.6-14.1-17.1-19.4-28.3c-5.3-11.2-7.9-24.1-7.9-38.5c0-24.9,5.9-44.2,17.6-58.1c11.7-13.8,29.1-20.7,52.2-20.7
		C269.2,341.8,286.7,348.8,298.6,362.8z"/>
	<path class="st1" d="M393.3,376.9h-58v-32h151.2v32h-58v283h-35.1V376.9z"/>
	<path class="st1" d="M526.3,363c12.1-14.1,30.1-21.1,53.8-21.1c23.7,0,41.7,7.1,54,21.1c12.3,14.1,18.5,33.5,18.5,58v162.9
		c0,24.6-6.2,44-18.5,58c-12.3,14.1-30.3,21.2-54,21.2c-23.4,0-41.3-7-53.5-21.2c-12.3-14.1-18.5-33.4-18.5-58V421
		C508,396.5,514.1,377.1,526.3,363z M552.1,619.5c6.3,7.8,15.6,11.7,27.9,11.7c24.9,0,37.4-15.1,37.4-45.5V419.2
		c0-14.4-3.1-25.6-9.2-33.5c-6.2-7.9-15.5-11.9-28.1-11.9c-12.3,0-21.6,4-27.9,11.9c-6.3,8-9.5,19.1-9.5,33.5v166.5
		C542.7,600.5,545.8,611.7,552.1,619.5z"/>
	<path class="st1" d="M808,365c11.5,13.4,17.3,32.3,17.3,56.9v37.8c0,50.7-24.5,76.1-73.3,76.1h-31.1V660h-35.1V345h68.8
		C778.6,345,796.4,351.7,808,365z M781.2,494.4c6.3-6.6,9.4-17.4,9.4-32.4v-41.9c0-14.7-2.9-25.6-8.5-32.6
		c-5.7-7-14.8-10.6-27.5-10.6h-33.8v127.4h31.1C765.1,504.3,774.9,501,781.2,494.4z"/>
</g>
</svg>
