<?xml version="1.0" encoding="utf-8"?>
<!-- Generator: Adobe Illustrator 23.0.3, SVG Export Plug-In . SVG Version: 6.00 Build 0)  -->
<svg version="1.1" id="Capa_1" xmlns="http://www.w3.org/2000/svg" xmlns:xlink="http://www.w3.org/1999/xlink" x="0px" y="0px"
	 viewBox="0 0 64.1 64.1" style="enable-background:new 0 0 64.1 64.1;" xml:space="preserve">
<style type="text/css">
	.st0{fill:#FFFFFF;stroke:#000000;stroke-width:3;stroke-miterlimit:10;}
	.st1{fill:#F4C734;}
	.st2{fill:#F4C734;stroke:#000000;stroke-width:3;stroke-miterlimit:10;}
	.st3{fill:#38454F;}
	.st4{fill:#AFB6BB;stroke:#000000;stroke-miterlimit:10;}
	.st5{fill:#839594;stroke:#000000;stroke-miterlimit:10;}
</style>
<rect x="4" y="21.5" class="st0" width="56" height="39"/>
<g>
	<path class="st1" d="M26,53.5h-3v-25c0-0.1,0-0.3-0.1-0.4c-0.1-0.2-0.3-0.4-0.5-0.5c-0.2-0.1-0.5-0.1-0.8,0
		c-0.1,0.1-0.2,0.1-0.3,0.2l-6,6c-0.4,0.4-0.4,1,0,1.4c0.2,0.2,0.5,0.3,0.7,0.3c0.3,0,0.5-0.1,0.7-0.3L21,31v22.6h-3
		c-0.6,0-1,0.4-1,1s0.4,1,1,1h8c0.6,0,1-0.4,1-1S26.6,53.5,26,53.5z"/>
	<path class="st1" d="M44.8,40.5c2-1.2,3.3-3.4,3.3-5.9c0-3.9-3.1-7-7-7s-7,3.1-7,7c0,2.5,1.3,4.7,3.3,5.9c-2.5,1.3-4.3,4-4.3,7.1
		c0,4.4,3.6,8,8,8s8-3.6,8-8C49,44.5,47.3,41.8,44.8,40.5z M36,34.5c0-2.8,2.2-5,5-5s5,2.2,5,5s-2.2,5-5,5S36,37.3,36,34.5z
		 M41,53.5c-3.3,0-6-2.7-6-6s2.7-6,6-6s6,2.7,6,6S44.4,53.5,41,53.5z"/>
</g>
<polygon class="st2" points="45,8.5 19,8.5 4,8.5 4,21.5 60,21.5 60,8.5 "/>
<circle class="st3" cx="23" cy="12.5" r="2"/>
<circle class="st3" cx="29" cy="12.5" r="2"/>
<circle class="st3" cx="35" cy="12.5" r="2"/>
<circle class="st3" cx="41" cy="12.5" r="2"/>
<path class="st4" d="M41,3.5c-1.1,0-2.2,0.4-3,1c0.5,0.4,1,0.9,1.3,1.5c0.5-0.3,1.1-0.5,1.7-0.5c1.7,0,3,1.3,3,3s-1.3,3-3,3
	c-0.6,0-1,0.4-1,1s0.4,1,1,1c2.8,0,5-2.2,5-5S43.8,3.5,41,3.5z"/>
<path class="st5" d="M36.7,6.1C36.3,6.8,36,7.6,36,8.5h2C38,7.5,37.5,6.6,36.7,6.1z"/>
<path class="st5" d="M30.7,6.1C30.3,6.8,30,7.6,30,8.5h2C32,7.5,31.5,6.6,30.7,6.1z"/>
<path class="st4" d="M39.4,6.1C39,5.5,38.6,5,38,4.6c-0.8-0.6-1.9-1-3-1s-2.2,0.4-3,1c0.5,0.4,1,0.9,1.3,1.5
	c0.5-0.3,1.1-0.5,1.7-0.5s1.2,0.2,1.7,0.5C37.5,6.6,38,7.5,38,8.5c0,1.7-1.3,3-3,3c-0.6,0-1,0.4-1,1s0.4,1,1,1c2.8,0,5-2.2,5-5
	C40,7.6,39.8,6.8,39.4,6.1z"/>
<path class="st5" d="M24.7,6.1C24.3,6.8,24,7.6,24,8.5h2C26,7.5,25.5,6.6,24.7,6.1z"/>
<path class="st4" d="M33.4,6.1C33,5.5,32.6,5,32,4.6c-0.8-0.6-1.9-1-3-1s-2.2,0.4-3,1c0.5,0.4,1,0.9,1.3,1.5
	c0.5-0.3,1.1-0.5,1.7-0.5s1.2,0.2,1.7,0.5C31.5,6.6,32,7.5,32,8.5c0,1.7-1.3,3-3,3c-0.6,0-1,0.4-1,1s0.4,1,1,1c2.8,0,5-2.2,5-5
	C34,7.6,33.8,6.8,33.4,6.1z"/>
<path class="st4" d="M27.4,6.1C27,5.5,26.6,5,26,4.6c-0.8-0.6-1.9-1-3-1c-2.8,0-5,2.2-5,5h2c0-1.7,1.3-3,3-3c0.6,0,1.2,0.2,1.7,0.5
	C25.5,6.6,26,7.5,26,8.5c0,1.7-1.3,3-3,3c-0.6,0-1,0.4-1,1s0.4,1,1,1c2.8,0,5-2.2,5-5C28,7.6,27.8,6.8,27.4,6.1z"/>
</svg>
