<?xml version="1.0"?>
<svg xmlns="http://www.w3.org/2000/svg" viewBox="0 0 64 64" width="512" height="512"><path d="m25.063 27.666-9.435-1.847-.266 1.522-3.8-.665a4.63 4.63 0 0 0 -5.362 3.766l-2.534 14.458a4.635 4.635 0 0 0 3.767 5.36l3.8.666-.4 2.282a1.545 1.545 0 1 0 -.533 3.043l21.3 3.726a1.545 1.545 0 0 0 .532-3.044l.868-4.911s-7.813-22.769-7.864-23.074zm-13.294 20.216-3.043-.532a2.316 2.316 0 0 1 -1.883-2.681l2.262-12.934a2.316 2.316 0 0 1 2.681-1.883l3.043.532z" fill="#cfcfcf"/><path d="m25 28.965.134-.044-.071-1.255-9.244-1.809-4.819 27.143a1 1 0 0 0 .831 1.144l20.026 3.676a1 1 0 0 0 1.143-.82l-.552-5.648z" fill="#f4c734"/><path d="m25.463 29.377 8.956 26.323a1.544 1.544 0 1 0 1 2.924l20.473-6.965a1.544 1.544 0 1 0 -.995-2.924l-.897-2.635 3.078-1.047a4.634 4.634 0 0 0 2.894-5.879l-4.731-13.894a4.633 4.633 0 0 0 -5.88-2.895l-3.077 1.047-.347-1.02zm29.883 13-2.346.8-5.721-16.82 2.346-.8a2.318 2.318 0 0 1 2.94 1.447l4.229 12.43a2.317 2.317 0 0 1 -1.448 2.942z" fill="#cfcfcf"/><path d="m46 22-21 6.965 8.661 26.035a1.077 1.077 0 0 0 1.339.62l19.332-6.354a.988.988 0 0 0 .668-1.266z" fill="#f4c734"/><g fill="#f9f2cc"><path d="m25.093 27.112a4.557 4.557 0 0 1 4.72-3.992 4.94 4.94 0 0 1 .292-.4 3.772 3.772 0 0 0 -.373-.1 9.251 9.251 0 0 0 -3.36.2 6.176 6.176 0 0 0 -10.744 2.992l9.435 1.847c.007-.179.005-.365.03-.547z"/><circle cx="42" cy="5" r="2"/><circle cx="33" cy="12" r="4"/><circle cx="19" cy="13" r="3"/><circle cx="13" cy="5" r="2"/><path d="m25.093 27.112a6.035 6.035 0 0 0 .042 1.837c.051.3.208.246.437.181.554-.158 1.1-.374 1.654-.563a1 1 0 0 1 1.269.624l.63 1.853a2.408 2.408 0 0 0 2.753 1.638 2.317 2.317 0 0 0 1.677-3.005l.455 1.337a2.408 2.408 0 0 0 2.752 1.638 2.318 2.318 0 0 0 1.678-3.005l-1.171-3.441a1 1 0 0 1 .625-1.268l7.827-2.663a6.176 6.176 0 0 0 -11.077-1.3 4.62 4.62 0 0 0 -4.831 2.145 4.6 4.6 0 0 0 -4.72 3.992z"/></g><path d="m39 5a3 3 0 1 0 3-3 3 3 0 0 0 -3 3zm4 0a1 1 0 1 1 -1-1 1 1 0 0 1 1 1z"/><path d="m33 7a5 5 0 1 0 5 5 5.006 5.006 0 0 0 -5-5zm0 8a3 3 0 1 1 3-3 3 3 0 0 1 -3 3z"/><path d="m19 17a4 4 0 1 0 -4-4 4 4 0 0 0 4 4zm0-6a2 2 0 1 1 -2 2 2 2 0 0 1 2-2z"/><path d="m13 2a3 3 0 1 0 3 3 3 3 0 0 0 -3-3zm0 4a1 1 0 1 1 1-1 1 1 0 0 1 -1 1z"/><path d="m40.455 33.265h1.999v20.081h-1.999z" transform="matrix(.94671111 -.32208395 .32208395 .94671111 -11.739 15.66)"/><path d="m35.337 35.006h1.999v20.081h-1.999z" transform="matrix(.94671111 -.32208395 .32208395 .94671111 -12.573 14.104)"/><path d="m45.574 31.524h1.999v20.081h-1.999z" transform="matrix(.94672236 -.3220509 .3220509 .94672236 -10.904 17.213)"/><path d="m7.261 51.245 2.819.493-.09.514a2.544 2.544 0 0 0 .144 4.984l21.3 3.725a2.511 2.511 0 0 0 .438.039 2.546 2.546 0 0 0 2.306-1.492 2.433 2.433 0 0 0 1.341-.074l20.473-6.965a2.545 2.545 0 0 0 -.627-4.947l-.168-.493 2.709-.922a5.641 5.641 0 0 0 3.519-7.149l-4.725-13.893a5.633 5.633 0 0 0 -7.148-3.519l-2.71.922-.175-.516a7.176 7.176 0 0 0 -12.5-2.047 5.55 5.55 0 0 0 -4.607 1.9 4.9 4.9 0 0 0 -.66-.166 5.648 5.648 0 0 0 -2.228.06 7.177 7.177 0 0 0 -12.033 3.949l-.094.537-2.82-.493a5.633 5.633 0 0 0 -6.52 4.579l-2.524 14.454a5.641 5.641 0 0 0 4.58 6.52zm16.776-22.9a5.552 5.552 0 0 0 .234 1.112l-8.018-1.4.187-1.07zm2.48 1.524 1.031-.35.351 1.031-1.032.351zm-15.56 16.856-2.06-.36a1.316 1.316 0 0 1 -1.069-1.524l2.262-12.934a1.321 1.321 0 0 1 1.524-1.07l2.058.36zm20.822 12.267-21.3-3.726a.545.545 0 1 1 .188-1.073 1 1 0 0 0 1.157-.813l4.086-23.361 9.09 1.59 6.969 20.491-.815 4.659a1 1 0 0 0 .167.747 1 1 0 0 0 .647.41.545.545 0 0 1 -.189 1.074zm23.91-9.108a.544.544 0 0 1 -.339.691l-20.473 6.966a.545.545 0 0 1 -.353-1.032 1 1 0 0 0 .625-1.269l-7.637-22.451 1.192-.405a3.305 3.305 0 0 0 5.113.271 3.337 3.337 0 0 0 .964.714 3.317 3.317 0 0 0 4.605-4.044l-.176-.515 6.882-2.342 7.638 22.451a1 1 0 0 0 1.27.625.545.545 0 0 1 .689.34zm-17.473-24 6.884-2.341.351 1.032-6.881 2.341zm10.267 1.4 1.978-.673a1.316 1.316 0 0 1 1.671.824l4.229 12.429a1.318 1.318 0 0 1 -.823 1.671l-1.978.673zm1.717-3.844a3.635 3.635 0 0 1 4.612 2.27l4.722 13.89a3.638 3.638 0 0 1 -2.27 4.61l-2.709.922-.355-1.032 1.979-.673a3.321 3.321 0 0 0 2.071-4.209l-4.23-12.43a3.323 3.323 0 0 0 -4.208-2.072l-1.978.673-.35-1.031zm-19.528.2a3.62 3.62 0 0 1 3.786-1.682 1 1 0 0 0 1.036-.451 5.117 5.117 0 0 1 2.706-2.145 5.183 5.183 0 0 1 6.153 2.32l-7.732 2.631a1 1 0 0 0 -.621 1.269l1.492 4.387a1.317 1.317 0 0 1 -2.492.848l-.5-1.462a1 1 0 1 0 -1.892.645 1.317 1.317 0 0 1 -2.494.846l-1-2.925a1 1 0 0 0 -1.268-.624l-1.829.622a3.627 3.627 0 0 1 2.442-3.613 3.573 3.573 0 0 1 1.311-.187.99.99 0 0 0 .899-.48zm-8.063-1.857a5.119 5.119 0 0 1 3.011 1.7 1 1 0 0 0 .176.15 5.671 5.671 0 0 0 -1.607 2.7l-7.3-1.307a5.183 5.183 0 0 1 5.717-3.244zm-17.958 23.286 2.529-14.455a3.631 3.631 0 0 1 4.206-2.953l2.818.492-.187 1.074-2.058-.36a3.317 3.317 0 0 0 -3.84 2.7l-2.262 12.933a3.319 3.319 0 0 0 2.7 3.839l2.058.36-.187 1.074-2.828-.498a3.64 3.64 0 0 1 -2.949-4.206z"/><path d="m13.045 44.941h20.081v2.001h-20.081z" transform="matrix(.17230734 -.98504324 .98504324 .17230734 -26.146 60.766)"/><path d="m21.691 49.882h11.922v1.999h-11.922z" transform="matrix(.16265439 -.98668311 .98668311 .16265439 -27.05 69.888)"/><path d="m7.72 44.009h20.08v2.001h-20.08z" transform="matrix(.17225577 -.98505226 .98505226 .17225577 -29.636 54.751)"/></svg>
